<?xml version="1.0" encoding="utf-8"?>
<!-- Generated by IcoMoon.io -->
<!DOCTYPE svg PUBLIC "-//W3C//DTD SVG 1.1//EN" "http://www.w3.org/Graphics/SVG/1.1/DTD/svg11.dtd">

<svg version="1.1" xmlns="http://www.w3.org/2000/svg" xmlns:xlink="http://www.w3.org/1999/xlink" width="272" height="32" viewBox="0 0 272 32">
<g transform="translate(0 0)">
	<path fill="#999999" d="M9.5 19c0 3.59 2.91 6.5 6.5 6.5s6.5-2.91 6.5-6.5-2.91-6.5-6.5-6.5-6.5 2.91-6.5 6.5zM30 8h-7c-0.5-2-1-4-3-4h-8c-2 0-2.5 2-3 4h-7c-1.1 0-2 0.9-2 2v18c0 1.1 0.9 2 2 2h28c1.1 0 2-0.9 2-2v-18c0-1.1-0.9-2-2-2zM16 27.875c-4.902 0-8.875-3.973-8.875-8.875s3.973-8.875 8.875-8.875c4.902 0 8.875 3.973 8.875 8.875s-3.973 8.875-8.875 8.875zM30 14h-4v-2h4v2z"></path>
</g>
<g transform="translate(48 0)">
	<path fill="#999999" d="M10 6l22-6v23c0 2.761-3.134 5-7 5s-7-2.239-7-5c0-2.761 3.134-5 7-5 1.074 0 2.091 0.173 3 0.481v-10.3l-14 3.818v15c0 2.761-3.134 5-7 5s-7-2.239-7-5c0-2.761 3.134-5 7-5 1.074 0 2.091 0.173 3 0.481v-16.481z"></path>
</g>
<g transform="translate(96 0)">
	<path fill="#999999" d="M6 18.071v13.857c0.327 0.047 0.66 0.071 1 0.071h1v-14h-1c-0.34 0-0.673 0.025-1 0.071zM24 18v14h1c0.34 0 0.673-0.025 1-0.071v-13.857c-0.327-0.047-0.66-0.071-1-0.071h-1zM32 16c0-8.837-7.163-16-16-16s-16 7.163-16 16c0 1.919 0.338 3.76 0.958 5.465-0.609 1.038-0.958 2.245-0.958 3.535 0 2.792 1.635 5.202 4 6.326v-12.652c-0.629 0.299-1.206 0.689-1.714 1.153-0.187-0.913-0.286-1.859-0.286-2.827 0-7.732 6.268-14 14-14s14 6.268 14 14c0 0.969-0.098 1.914-0.286 2.827-0.509-0.464-1.085-0.854-1.714-1.153v12.652c2.365-1.124 4-3.534 4-6.326 0-1.29-0.349-2.498-0.958-3.535 0.62-1.705 0.958-3.546 0.958-5.465z"></path>
</g>
<g transform="translate(144 0)">
	<path fill="#999999" d="M4 16l8-8h-4l-8 8 8 8h4zM24 8h-4l8 8-8 8h4l8-8zM17 4l-5 24h3l5-24z"></path>
</g>
<g transform="translate(192 0)">
	<path fill="#999999" d="M16 6l-12-6h-2c-1.105 0-2 0.895-2 2v22c0 1.105 0.894 2 2 2l14 6 14-6c1.105 0 2-0.895 2-2v-22c0-1.105-0.895-2-2-2h-2zM14 27l-10-5v-16l10 3.333v17.667zM28 22l-10 5v-17.667l10-3.333v16z"></path>
</g>

</svg>
