<svg display="none" width="0" height="0" version="1.1" xmlns="http://www.w3.org/2000/svg" xmlns:xlink="http://www.w3.org/1999/xlink">
<defs>
<symbol id="icon-camera" viewBox="0 0 1024 1024">
	<title>camera</title>
	<path class="path1" d="M304 608c0 114.876 93.124 208 208 208s208-93.124 208-208-93.124-208-208-208-208 93.124-208 208zM960 256h-224c-16-64-32-128-96-128h-256c-64 0-80 64-96 128h-224c-35.2 0-64 28.8-64 64v576c0 35.2 28.8 64 64 64h896c35.2 0 64-28.8 64-64v-576c0-35.2-28.8-64-64-64zM512 892c-156.85 0-284-127.148-284-284 0-156.85 127.15-284 284-284 156.852 0 284 127.15 284 284 0 156.852-127.146 284-284 284zM960 448h-128v-64h128v64z"></path>
</symbol>
<symbol id="icon-music" viewBox="0 0 1024 1024">
	<title>music</title>
	<path class="path1" d="M320 192l704-192v736c0 88.366-100.29 160-224 160s-224-71.634-224-160c0-88.366 100.29-160 224-160 34.358 0 66.902 5.532 96 15.406v-329.588l-448 122.182v480c0 88.366-100.288 160-224 160s-224-71.634-224-160c0-88.366 100.288-160 224-160 34.358 0 66.902 5.532 96 15.406v-527.406z"></path>
</symbol>
<symbol id="icon-headphones" viewBox="0 0 1024 1024">
	<title>headphones</title>
	<path class="path1" d="M192 578.286v443.43c10.454 1.496 21.134 2.286 32 2.286h32v-448.002h-32c-10.866 0-21.546 0.79-32 2.286zM768 576v448h32c10.868 0 21.546-0.79 32-2.286v-443.428c-10.454-1.496-21.132-2.286-32-2.286h-32zM1024 512c0-282.77-229.23-512-512-512s-512 229.23-512 512c0 61.418 10.828 120.306 30.656 174.874-19.472 33.202-30.656 71.852-30.656 113.126 0 89.354 52.326 166.478 128 202.432v-404.864c-20.126 9.562-38.58 22.060-54.858 36.904-5.992-29.22-9.142-59.478-9.142-90.472 0-247.424 200.576-448 448-448s448 200.576 448 448c0 30.994-3.148 61.252-9.142 90.472-16.28-14.844-34.73-27.342-54.858-36.904v404.864c75.676-35.954 128-113.078 128-202.432 0-41.274-11.184-79.924-30.656-113.126 19.828-54.568 30.656-113.456 30.656-174.874z"></path>
</symbol>
<symbol id="icon-code" viewBox="0 0 1024 1024">
	<title>code</title>
	<path class="path1" d="M128 512l256-256h-128l-256 256 256 256h128zM768 256h-128l256 256-256 256h128l256-256zM544 128l-160 768h96l160-768z"></path>
</symbol>
<symbol id="icon-book" viewBox="0 0 1024 1024">
	<title>book</title>
	<path class="path1" d="M512 192l-384-192h-64c-35.376 0-64 28.656-64 64v704c0 35.376 28.624 64 64 64l448 192 448-192c35.376 0 64-28.624 64-64v-704c0-35.344-28.624-64-64-64h-64zM448 864l-320-160v-512l320 106.656v565.344zM896 704l-320 160v-565.344l320-106.656v512z"></path>
</symbol>
</defs>
</svg>
